<svg width="21" height="24" viewBox="0 0 21 24" fill="none" xmlns="http://www.w3.org/2000/svg">
<path d="M19.6151 17.0769C19.6151 17.5258 19.4368 17.9562 19.1194 18.2736C18.802 18.5909 18.3716 18.7692 17.9228 18.7692H6.92278C6.47395 18.7692 6.0435 18.5909 5.72613 18.2736C5.40877 17.9562 5.23047 17.5258 5.23047 17.0769V2.69231C5.23047 2.24348 5.40877 1.81303 5.72613 1.49567C6.0435 1.1783 6.47395 1 6.92278 1H14.5382L19.6151 6.07692V17.0769Z" stroke="white" stroke-width="2" stroke-linecap="round" stroke-linejoin="round"/>
<path d="M14.5385 23.0002H2.69231C2.24348 23.0002 1.81303 22.8219 1.49567 22.5046C1.1783 22.1872 1 21.7567 1 21.3079V6.07715" stroke="white" stroke-width="2" stroke-linecap="round" stroke-linejoin="round"/>
</svg>
