<svg width="67" height="38" viewBox="0 0 67 38" fill="none" xmlns="http://www.w3.org/2000/svg">
<path d="M65.375 11.9164C59.5068 11.9164 54.75 7.15939 54.75 1.29138M1.625 11.9164C7.49301 11.9164 12.25 7.15939 12.25 1.29138M65.375 26.083C59.5068 26.083 54.75 30.8399 54.75 36.708M1.625 26.083C7.49301 26.083 12.25 30.8399 12.25 36.708M8.70833 1.29138H58.2917C62.2038 1.29138 65.375 4.4627 65.375 8.37472V29.6247C65.375 33.5368 62.2038 36.708 58.2917 36.708H8.70833C4.79631 36.708 1.625 33.5368 1.625 29.6247V8.37472C1.625 4.4627 4.79631 1.29138 8.70833 1.29138ZM40.5833 18.9997C40.5833 22.9118 37.4121 26.083 33.5 26.083C29.5879 26.083 26.4167 22.9118 26.4167 18.9997C26.4167 15.0876 29.5879 11.9164 33.5 11.9164C37.4121 11.9164 40.5833 15.0876 40.5833 18.9997Z" stroke="white" stroke-width="2" stroke-linecap="round"/>
</svg>
