<svg width="53" height="52" viewBox="0 0 53 52" fill="none" xmlns="http://www.w3.org/2000/svg">
<path d="M26.5 10.9998V50.9998M26.5 10.9998H17.6607C16.3583 10.9998 15.1092 10.473 14.1883 9.53528C13.2674 8.59761 12.75 7.32583 12.75 5.99976C12.75 4.67368 13.2674 3.40191 14.1883 2.46423C15.1092 1.52653 16.3583 0.999756 17.6607 0.999756C24.5357 0.999756 26.5 10.9998 26.5 10.9998ZM26.5 10.9998H35.3392C36.6417 10.9998 37.8907 10.473 38.8117 9.53528C39.7325 8.59761 40.25 7.32583 40.25 5.99976C40.25 4.67368 39.7325 3.40191 38.8117 2.46423C37.8907 1.52653 36.6417 0.999756 35.3392 0.999756C28.4642 0.999756 26.5 10.9998 26.5 10.9998ZM46.5 23.4998V42.9998C46.5 45.8 46.5 47.2003 45.955 48.2698C45.4757 49.2105 44.7108 49.9755 43.77 50.4548C42.7005 50.9998 41.3003 50.9998 38.5 50.9998H14.5C11.6997 50.9998 10.2996 50.9998 9.23005 50.4548C8.28923 49.9755 7.52432 49.2105 7.04497 48.2698C6.5 47.2003 6.5 45.8 6.5 42.9998V23.4998M1.5 14.9998V19.4998C1.5 20.8999 1.5 21.6 1.77247 22.1348C2.01217 22.6053 2.39463 22.9875 2.86503 23.2273C3.3998 23.4998 4.09987 23.4998 5.5 23.4998H47.5C48.9003 23.4998 49.6003 23.4998 50.135 23.2273C50.6055 22.9875 50.9878 22.6053 51.2275 22.1348C51.5 21.6 51.5 20.8999 51.5 19.4998V14.9998C51.5 13.5996 51.5 12.8996 51.2275 12.3648C50.9878 11.8944 50.6055 11.5119 50.135 11.2722C49.6003 10.9998 48.9003 10.9998 47.5 10.9998H5.5C4.09987 10.9998 3.3998 10.9998 2.86503 11.2722C2.39463 11.5119 2.01217 11.8944 1.77247 12.3648C1.5 12.8996 1.5 13.5996 1.5 14.9998Z" stroke="white" stroke-width="2" stroke-linecap="round" stroke-linejoin="round"/>
</svg>
