<svg width="53" height="52" viewBox="0 0 53 52" fill="none" xmlns="http://www.w3.org/2000/svg">
<path d="M40.3889 17.6664L25.2936 32.7617C24.7436 33.3117 24.4686 33.5867 24.1514 33.6898C23.8725 33.7806 23.5719 33.7806 23.2931 33.6898C22.9758 33.5867 22.7008 33.3117 22.1508 32.7617L16.9603 27.5711C16.4102 27.0211 16.1352 26.7461 15.8181 26.6431C15.5391 26.5523 15.2386 26.5523 14.9597 26.6431C14.6426 26.7461 14.3676 27.0211 13.8175 27.5711L1.5 39.8886M40.3889 17.6664H29.2778M40.3889 17.6664V28.7775M14.8333 50.9998H38.1667C42.8339 50.9998 45.1672 50.9998 46.95 50.0914C48.5181 49.2925 49.7928 48.0178 50.5917 46.4498C51.5 44.667 51.5 42.3337 51.5 37.6664V14.3331C51.5 9.66598 51.5 7.33242 50.5917 5.54984C49.7928 3.98181 48.5181 2.70698 46.95 1.90803C45.1672 0.999756 42.8339 0.999756 38.1667 0.999756H14.8333C10.1662 0.999756 7.83267 0.999756 6.05008 1.90803C4.48206 2.70698 3.20722 3.98181 2.40828 5.54984C1.5 7.33242 1.5 9.66598 1.5 14.3331V37.6664C1.5 42.3337 1.5 44.667 2.40828 46.4498C3.20722 48.0178 4.48206 49.2925 6.05008 50.0914C7.83267 50.9998 10.1662 50.9998 14.8333 50.9998Z" stroke="white" stroke-width="2" stroke-linecap="round" stroke-linejoin="round"/>
</svg>
