<svg width="36" height="37" viewBox="0 0 36 37" fill="none" xmlns="http://www.w3.org/2000/svg">
<rect x="0.5" y="1" width="35" height="35" rx="17.5" stroke="white"/>
<path d="M17.9993 34.0834C26.6058 34.0834 33.5827 27.1065 33.5827 18.5001C33.5827 9.89364 26.6058 2.91675 17.9993 2.91675C9.39291 2.91675 2.41602 9.89364 2.41602 18.5001C2.41602 27.1065 9.39291 34.0834 17.9993 34.0834Z" fill="url(#paint0_linear_660_2502)"/>
<path fill-rule="evenodd" clip-rule="evenodd" d="M9.46992 18.3356C14.0128 16.3563 17.0421 15.0515 18.5578 14.4211C22.8854 12.621 23.7847 12.3083 24.3708 12.298C24.4997 12.2958 24.7879 12.3277 24.9746 12.4792C25.1323 12.6071 25.1757 12.7799 25.1964 12.9012C25.2172 13.0225 25.243 13.2988 25.2225 13.5147C24.988 15.9788 23.9732 21.9585 23.457 24.7183C23.2385 25.8861 22.8084 26.2776 22.392 26.3159C21.487 26.3992 20.7999 25.7179 19.9234 25.1433C18.5518 24.2443 17.777 23.6846 16.4457 22.8073C14.9071 21.7934 15.9045 21.2362 16.7813 20.3255C17.0108 20.0871 20.9981 16.4604 21.0752 16.1314C21.0849 16.0903 21.0938 15.9369 21.0027 15.8559C20.9116 15.7749 20.7771 15.8026 20.6801 15.8246C20.5425 15.8559 18.3515 17.3041 14.1069 20.1692C13.485 20.5963 12.9217 20.8044 12.417 20.7935C11.8606 20.7814 10.7903 20.4789 9.99461 20.2202C9.01871 19.903 8.24307 19.7353 8.31061 19.1965C8.34579 18.9159 8.73223 18.6289 9.46992 18.3356Z" fill="white"/>
<defs>
<linearGradient id="paint0_linear_660_2502" x1="17.9993" y1="2.91675" x2="17.9993" y2="33.8523" gradientUnits="userSpaceOnUse">
<stop stop-color="#2AABEE"/>
<stop offset="1" stop-color="#229ED9"/>
</linearGradient>
</defs>
</svg>
