<svg width="47" height="52" viewBox="0 0 47 52" fill="none" xmlns="http://www.w3.org/2000/svg">
<path d="M9.61117 20.4442V14.8886C9.61117 7.21803 15.8294 0.999756 23.5001 0.999756C29.1953 0.999756 34.0901 4.42781 36.2334 9.33309M23.5001 32.9442V38.4998M14.6112 50.9998H32.3889C37.0562 50.9998 39.3895 50.9998 41.1723 50.0914C42.7403 49.2925 44.0151 48.0178 44.8139 46.4498C45.7223 44.667 45.7223 42.3336 45.7223 37.6664V33.7775C45.7223 29.1103 45.7223 26.777 44.8139 24.9942C44.0151 23.4261 42.7403 22.1514 41.1723 21.3525C39.3895 20.4442 37.0562 20.4442 32.3889 20.4442H14.6112C9.94406 20.4442 7.6105 20.4442 5.82792 21.3525C4.25989 22.1514 2.98505 23.4261 2.18611 24.9942C1.27783 26.777 1.27783 29.1103 1.27783 33.7775V37.6664C1.27783 42.3336 1.27783 44.667 2.18611 46.4498C2.98505 48.0178 4.25989 49.2925 5.82792 50.0914C7.6105 50.9998 9.94406 50.9998 14.6112 50.9998Z" stroke="white" stroke-width="2" stroke-linecap="round" stroke-linejoin="round"/>
</svg>
